PathFileType	4	(X/Y/Z)	G:\GRF\jawan data\CompiledGRF\03. Mohit Kumar\0231~ac~Walking 06_markers.trc
DataRate	CameraRate	NumFrames	NumMarkers	Units	OrigDataRate	OrigDataStartFrame	OrigNumFrames
100.000000	100.000000	27	18	mm	100.000000	854	977
Frame#	Time	c7			r should			l should			sacrum			r asis			r bar 1			r knee 1			r bar 2			r mall			r heel			r met			l asis			l bar 1			l knee 1			l bar 2			l mall			l heel			l met			
		X1	Y1	Z1	X2	Y2	Z2	X3	Y3	Z3	X4	Y4	Z4	X5	Y5	Z5	X6	Y6	Z6	X7	Y7	Z7	X8	Y8	Z8	X9	Y9	Z9	X10	Y10	Z10	X11	Y11	Z11	X12	Y12	Z12	X13	Y13	Z13	X14	Y14	Z14	X15	Y15	Z15	X16	Y16	Z16	X17	Y17	Z17	X18	Y18	Z18	

855	8.540000000000001	nan	nan	nan	3210.61181640625	1457.852783203125	395.5411682128906	3181.055419921875	1462.757934570313	69.98151397705078	3053.703369140625	1041.775756835938	229.6213226318359	3244.383544921875	1008.746887207031	346.3854675292969	nan	nan	nan	nan	nan	nan	nan	nan	nan	nan	nan	nan	nan	nan	nan	nan	nan	nan	3225.496826171875	1014.931457519531	100.3866882324219	3286.935791015625	609.5672607421875	6.366300106048584	nan	nan	nan	nan	nan	nan	3041.4384765625	167.5941162109375	85.35698699951172	nan	nan	nan	nan	nan	nan	
856	8.550000000000001	3167.263916015625	1499.612426757813	236.9456329345703	3219.41748046875	1458.099853515625	395.9829406738281	3189.176025390625	1462.608520507813	70.43505096435547	3064.3583984375	1041.202270507813	229.3913421630859	3251.6240234375	1008.135925292969	347.124267578125	nan	nan	nan	nan	nan	nan	nan	nan	nan	nan	nan	nan	nan	nan	nan	nan	nan	nan	3233.988037109375	1015.216003417969	100.9638900756836	3302.23046875	612.6552124023438	6.73664665222168	nan	nan	nan	nan	nan	nan	nan	nan	nan	nan	nan	nan	nan	nan	nan	
857	8.56	3170.14599609375	1499.420654296875	237.3046417236328	3228.054443359375	1458.05859375	396.3581848144531	3196.835693359375	1462.099853515625	70.72151947021484	3066.702392578125	1041.800048828125	228.955810546875	3258.837890625	1007.423278808594	347.7875061035156	nan	nan	nan	nan	nan	nan	nan	nan	nan	nan	nan	nan	nan	nan	nan	nan	nan	nan	3242.28955078125	1015.348327636719	101.4491806030273	3316.51904296875	614.8513793945313	6.910484313964844	nan	nan	nan	nan	nan	nan	nan	nan	nan	nan	nan	nan	nan	nan	nan	
858	8.57	3173.604736328125	1499.219360351563	237.7425537109375	3236.734130859375	1457.976318359375	396.6166687011719	3204.649658203125	1461.4521484375	70.96978759765625	3074.056884765625	1041.39990234375	228.7672119140625	3266.140869140625	1006.700988769531	348.3244323730469	nan	nan	nan	nan	nan	nan	nan	nan	nan	nan	nan	nan	nan	nan	nan	nan	nan	nan	3250.42236328125	1015.36181640625	101.7967300415039	3328.688232421875	615.0828857421875	6.464839935302734	nan	nan	nan	nan	nan	nan	nan	nan	nan	nan	nan	nan	nan	nan	nan	
859	8.58	3176.156982421875	1499.0830078125	237.9621429443359	3245.443359375	1457.754150390625	396.9140930175781	3212.89990234375	1460.797607421875	71.13016510009766	3081.52587890625	1040.998413085938	228.663818359375	3273.530517578125	1005.950927734375	348.7037658691406	nan	nan	nan	nan	nan	nan	nan	nan	nan	nan	nan	nan	nan	nan	nan	nan	nan	nan	3258.3984375	1015.242309570313	102.0336380004883	3340.96044921875	616.3397827148438	6.563479900360107	nan	nan	nan	nan	nan	nan	nan	nan	nan	nan	nan	nan	nan	nan	nan	
860	8.59	3181.65283203125	1498.573120117188	238.0284118652344	3253.66552734375	1457.002807617188	396.864990234375	3221.531982421875	1460.078247070313	71.31843566894531	3089.47314453125	1040.549560546875	228.4963073730469	3281.072021484375	1005.205383300781	348.9724731445313	nan	nan	nan	nan	nan	nan	nan	nan	nan	nan	nan	nan	nan	nan	nan	nan	nan	nan	3266.366943359375	1015.018676757813	102.2172241210938	3351.8701171875	617.514892578125	7.256462097167969	nan	nan	nan	nan	nan	nan	nan	nan	nan	nan	nan	nan	nan	nan	nan	
861	8.6	3187.96630859375	1497.94873046875	238.0296020507813	3261.959716796875	1456.202758789063	396.8551025390625	3227.375	1459.525512695313	71.54975891113281	3099.273193359375	1039.6767578125	228.4327850341797	3288.6396484375	1004.367126464844	349.1036376953125	nan	nan	nan	nan	nan	nan	nan	nan	nan	nan	nan	nan	nan	nan	nan	nan	nan	nan	3274.296630859375	1014.661926269531	102.3467483520508	3361.709228515625	620.0315551757813	8.260364532470703	nan	nan	nan	nan	nan	nan	nan	nan	nan	nan	nan	nan	nan	nan	nan	
862	8.609999999999999	nan	nan	nan	3270.18115234375	1455.497924804688	397.4526062011719	nan	nan	nan	3108.171142578125	1038.916137695313	228.4600982666016	3296.312255859375	1003.507751464844	349.1808776855469	nan	nan	nan	nan	nan	nan	nan	nan	nan	nan	nan	nan	nan	nan	nan	nan	nan	nan	3282.19921875	1014.213928222656	102.4934997558594	3366.537353515625	619.9672241210938	7.959522247314453	nan	nan	nan	nan	nan	nan	nan	nan	nan	nan	nan	nan	nan	nan	nan	
863	8.620000000000001	3218.3759765625	1495.069091796875	237.7505798339844	3278.490234375	1454.697021484375	397.7546997070313	3249.04833984375	1457.030639648438	71.13668060302734	3115.69482421875	1038.331420898438	228.5103302001953	3304.156982421875	1002.644653320313	349.2079467773438	nan	nan	nan	nan	nan	nan	nan	nan	nan	nan	nan	nan	nan	nan	nan	nan	nan	nan	3290.051025390625	1013.640258789063	102.6363220214844	nan	nan	nan	nan	nan	nan	nan	nan	nan	nan	nan	nan	nan	nan	nan	nan	nan	nan	
864	8.630000000000001	3224.53076171875	1494.439086914063	237.7144470214844	3286.82421875	1453.866943359375	397.7406616210938	3255.26171875	1456.314453125	71.07516479492188	3122.6982421875	1037.866821289063	228.5301361083984	3312.12060546875	1001.733764648438	349.2275695800781	nan	nan	nan	nan	nan	nan	nan	nan	nan	nan	nan	nan	nan	nan	nan	nan	nan	nan	3297.4609375	1012.659301757813	102.6483383178711	nan	nan	nan	nan	nan	nan	nan	nan	nan	nan	nan	nan	nan	nan	nan	nan	nan	nan	
865	8.640000000000001	3226.50634765625	1494.175659179688	237.7443542480469	3295.114013671875	1452.76953125	397.4225769042969	3263.13720703125	1455.410400390625	71.23699951171875	3130.544921875	1037.368286132813	228.4789886474609	3320.071533203125	1000.784423828125	349.2206420898438	nan	nan	nan	nan	nan	nan	nan	nan	nan	nan	nan	nan	nan	nan	nan	nan	nan	nan	3303.904541015625	1010.958312988281	102.3855133056641	nan	nan	nan	nan	nan	nan	nan	nan	nan	nan	nan	nan	nan	nan	nan	nan	nan	nan	
866	8.65	3230.795654296875	1493.659301757813	237.9764251708984	3303.4306640625	1451.4912109375	396.8797302246094	3271.49169921875	1454.4853515625	71.57413482666016	3137.89404296875	1036.96240234375	228.5776519775391	3328.054931640625	999.785400390625	349.1262512207031	nan	nan	nan	nan	nan	nan	nan	nan	nan	nan	nan	nan	nan	nan	nan	nan	nan	nan	3309.84521484375	1008.817443847656	101.9225387573242	nan	nan	nan	nan	nan	nan	nan	nan	nan	nan	nan	nan	nan	nan	nan	nan	nan	nan	
867	8.66	3235.699951171875	1493.069091796875	238.0637512207031	3311.87548828125	1450.514526367188	396.9511108398438	3280.038818359375	1453.63330078125	71.76888275146484	3145.99755859375	1036.144409179688	228.7161560058594	3336.205078125	998.8589477539063	349.0399780273438	nan	nan	nan	nan	nan	nan	nan	nan	nan	nan	nan	nan	nan	nan	nan	nan	nan	nan	3315.6298828125	1006.46875	101.3675842285156	nan	nan	nan	nan	nan	nan	nan	nan	nan	nan	nan	nan	nan	nan	nan	nan	nan	nan	
868	8.67	nan	nan	nan	3320.095947265625	1449.576904296875	397.1889038085938	3285.464599609375	1453.032104492188	71.58525848388672	3157.021728515625	1034.644653320313	228.8971862792969	3344.414306640625	997.9011840820313	348.9059448242188	nan	nan	nan	nan	nan	nan	nan	nan	nan	nan	nan	nan	nan	nan	nan	nan	nan	nan	nan	nan	nan	nan	nan	nan	nan	nan	nan	nan	nan	nan	nan	nan	nan	nan	nan	nan	nan	nan	nan	
869	8.68	3265.571533203125	1489.925903320313	237.0390167236328	3328.62939453125	1448.608032226563	397.08203125	nan	nan	nan	3167.039794921875	1033.23486328125	229.0017852783203	3352.0283203125	996.6663208007813	348.6349792480469	nan	nan	nan	nan	nan	nan	nan	nan	nan	nan	nan	nan	nan	nan	nan	nan	nan	nan	nan	nan	nan	nan	nan	nan	nan	nan	nan	nan	nan	nan	nan	nan	nan	nan	nan	nan	nan	nan	nan	
870	8.69	3271.451416015625	1489.336181640625	236.7862091064453	3337.261962890625	1447.575927734375	396.517333984375	3306.98486328125	1450.436645507813	69.63362884521484	3173.328125	1032.364990234375	228.9862823486328	3358.333984375	994.85302734375	348.1593322753906	nan	nan	nan	nan	nan	nan	nan	nan	nan	nan	nan	nan	nan	nan	nan	nan	nan	nan	nan	nan	nan	nan	nan	nan	nan	nan	nan	nan	nan	nan	nan	nan	nan	nan	nan	nan	nan	nan	nan	
871	8.700000000000001	3271.906494140625	1489.293823242188	236.5968170166016	3345.251220703125	1446.0732421875	395.6059265136719	3313.4189453125	1449.660522460938	69.67960357666016	3178.657958984375	1031.56884765625	228.9898986816406	nan	nan	nan	nan	nan	nan	nan	nan	nan	nan	nan	nan	nan	nan	nan	nan	nan	nan	nan	nan	nan	nan	nan	nan	nan	nan	nan	nan	nan	nan	nan	nan	nan	nan	nan	nan	nan	nan	nan	nan	nan	nan	
872	8.710000000000001	3272.5517578125	1489.227905273438	236.6223907470703	3352.49853515625	1444.8701171875	395.6518859863281	3321.06689453125	1448.443725585938	69.75539398193359	3185.46630859375	1030.467407226563	228.94189453125	nan	nan	nan	nan	nan	nan	nan	nan	nan	nan	nan	nan	nan	nan	nan	nan	nan	nan	nan	nan	nan	nan	nan	nan	nan	nan	nan	nan	nan	nan	nan	nan	nan	nan	nan	nan	nan	nan	nan	nan	nan	nan	
873	8.720000000000001	nan	nan	nan	3359.494140625	1443.632446289063	395.3924560546875	3326.0537109375	1447.457397460938	69.71294403076172	3194.82275390625	1029.131591796875	228.7448577880859	nan	nan	nan	nan	nan	nan	nan	nan	nan	nan	nan	nan	nan	nan	nan	nan	nan	nan	nan	nan	nan	nan	nan	nan	nan	nan	nan	nan	nan	nan	nan	nan	nan	nan	nan	nan	nan	nan	nan	nan	nan	nan	
874	8.73	3311.4140625	1485.322143554688	235.3354797363281	3369.3759765625	1442.644409179688	394.3111572265625	nan	nan	nan	3207.1513671875	1027.485961914063	228.4758148193359	nan	nan	nan	nan	nan	nan	nan	nan	nan	nan	nan	nan	nan	nan	nan	nan	nan	nan	nan	nan	nan	nan	nan	nan	nan	nan	nan	nan	nan	nan	nan	nan	nan	nan	nan	nan	nan	nan	nan	nan	nan	nan	
875	8.74	3314.341552734375	1485.030029296875	235.1347503662109	3378.107177734375	1441.66455078125	393.3370971679688	3348.022705078125	1444.797973632813	66.86910247802734	3217.183837890625	1026.444946289063	228.0720977783203	nan	nan	nan	nan	nan	nan	nan	nan	nan	nan	nan	nan	nan	nan	nan	nan	nan	nan	nan	nan	nan	nan	nan	nan	nan	nan	nan	nan	nan	nan	nan	nan	nan	nan	nan	nan	nan	nan	nan	nan	nan	nan	
876	8.75	3313.234130859375	1485.1474609375	234.8730621337891	3385.778564453125	1440.948364257813	393.38330078125	3354.0693359375	1443.731079101563	66.79835510253906	3220.962646484375	1026.547241210938	227.4515075683594	nan	nan	nan	nan	nan	nan	nan	nan	nan	nan	nan	nan	nan	nan	nan	nan	nan	nan	nan	nan	nan	nan	nan	nan	nan	nan	nan	nan	nan	nan	nan	nan	nan	nan	nan	nan	nan	nan	nan	nan	nan	nan	
877	8.76	nan	nan	nan	3393.283447265625	1440.347412109375	393.1047973632813	3361.906982421875	1442.743286132813	66.32451629638672	3227.298828125	1026.47021484375	226.6199035644531	nan	nan	nan	nan	nan	nan	nan	nan	nan	nan	nan	nan	nan	nan	nan	nan	nan	nan	nan	nan	nan	nan	nan	nan	nan	nan	nan	nan	nan	nan	nan	nan	nan	nan	nan	nan	nan	nan	nan	nan	nan	nan	
878	8.77	3344.087646484375	1482.079467773438	232.2663879394531	3403.55859375	1440.107543945313	392.10693359375	3369.9736328125	1441.792358398438	65.25589752197266	3237.39111328125	1025.70361328125	225.6752166748047	nan	nan	nan	nan	nan	nan	nan	nan	nan	nan	nan	nan	nan	nan	nan	nan	nan	nan	nan	nan	nan	nan	nan	nan	nan	nan	nan	nan	nan	nan	nan	nan	nan	nan	nan	nan	nan	nan	nan	nan	nan	nan	
879	8.779999999999999	3344.475830078125	1482.05517578125	231.5452423095703	3412.00341796875	1439.293823242188	390.8981628417969	3378.758544921875	1441.104736328125	64.2974853515625	3245.3583984375	1025.213256835938	224.8584747314453	nan	nan	nan	nan	nan	nan	nan	nan	nan	nan	nan	nan	nan	nan	nan	nan	nan	nan	nan	nan	nan	nan	nan	nan	nan	nan	nan	nan	nan	nan	nan	nan	nan	nan	nan	nan	nan	nan	nan	nan	nan	nan	
880	8.790000000000001	3345.64208984375	1481.95166015625	230.8386993408203	3420.246826171875	1438.997314453125	390.3728637695313	3387.81103515625	1440.533081054688	63.46022415161133	3253.735595703125	1024.858276367188	224.0075836181641	nan	nan	nan	nan	nan	nan	nan	nan	nan	nan	nan	nan	nan	nan	nan	nan	nan	nan	nan	nan	nan	nan	nan	nan	nan	nan	nan	nan	nan	nan	nan	nan	nan	nan	nan	nan	nan	nan	nan	nan	nan	nan	
881	8.800000000000001	nan	nan	nan	3428.59033203125	1438.6943359375	389.1820068359375	3396.6103515625	1439.874389648438	62.79030609130859	3262.780517578125	1024.321655273438	222.9055633544922	nan	nan	nan	nan	nan	nan	nan	nan	nan	nan	nan	nan	nan	nan	nan	nan	nan	nan	nan	nan	nan	nan	nan	nan	nan	nan	nan	nan	nan	nan	nan	nan	nan	nan	nan	nan	nan	nan	nan	nan	nan	nan	
